<mxfile host="app.diagrams.net" modified="2024-05-26T13:48:41.331Z" agent="Mozilla/5.0 (X11; Linux x86_64) AppleWebKit/537.36 (KHTML, like Gecko) Chrome/124.0.0.0 Safari/537.36" etag="PUu4QW2sTEmXC_3O_Jv-" version="24.4.4" type="device">
  <diagram name="preprocess" id="6paSyJ7U_IWhY0czur9J">
    <mxGraphModel dx="1434" dy="754" grid="1" gridSize="10" guides="1" tooltips="1" connect="1" arrows="1" fold="1" page="1" pageScale="1" pageWidth="827" pageHeight="1169" math="0" shadow="0">
      <root>
        <mxCell id="0" />
        <mxCell id="1" parent="0" />
        <mxCell id="HczclI9EBlV7ti5anGRS-7" style="edgeStyle=orthogonalEdgeStyle;rounded=0;orthogonalLoop=1;jettySize=auto;html=1;exitX=0.5;exitY=1;exitDx=0;exitDy=0;strokeWidth=2;" edge="1" parent="1" source="HczclI9EBlV7ti5anGRS-1" target="HczclI9EBlV7ti5anGRS-3">
          <mxGeometry relative="1" as="geometry" />
        </mxCell>
        <mxCell id="HczclI9EBlV7ti5anGRS-1" value="&lt;font style=&quot;font-size: 16px;&quot;&gt;Início&lt;/font&gt;" style="rounded=1;whiteSpace=wrap;html=1;fillColor=#fff2cc;strokeColor=#d6b656;" vertex="1" parent="1">
          <mxGeometry x="354" y="20" width="120" height="60" as="geometry" />
        </mxCell>
        <mxCell id="HczclI9EBlV7ti5anGRS-2" value="&lt;font style=&quot;font-size: 16px;&quot;&gt;Fim&lt;/font&gt;" style="rounded=1;whiteSpace=wrap;html=1;fillColor=#fff2cc;strokeColor=#d6b656;" vertex="1" parent="1">
          <mxGeometry x="354" y="600" width="120" height="60" as="geometry" />
        </mxCell>
        <mxCell id="HczclI9EBlV7ti5anGRS-8" value="" style="edgeStyle=orthogonalEdgeStyle;rounded=0;orthogonalLoop=1;jettySize=auto;html=1;strokeWidth=2;" edge="1" parent="1" source="HczclI9EBlV7ti5anGRS-3" target="HczclI9EBlV7ti5anGRS-4">
          <mxGeometry relative="1" as="geometry" />
        </mxCell>
        <mxCell id="HczclI9EBlV7ti5anGRS-3" value="&lt;font style=&quot;font-size: 16px;&quot;&gt;Diretório&lt;/font&gt;" style="shape=manualInput;whiteSpace=wrap;html=1;" vertex="1" parent="1">
          <mxGeometry x="374" y="120" width="80" height="80" as="geometry" />
        </mxCell>
        <mxCell id="HczclI9EBlV7ti5anGRS-9" value="" style="edgeStyle=orthogonalEdgeStyle;rounded=0;orthogonalLoop=1;jettySize=auto;html=1;strokeWidth=2;" edge="1" parent="1" source="HczclI9EBlV7ti5anGRS-4" target="HczclI9EBlV7ti5anGRS-5">
          <mxGeometry relative="1" as="geometry" />
        </mxCell>
        <mxCell id="HczclI9EBlV7ti5anGRS-4" value="&lt;font style=&quot;font-size: 16px;&quot;&gt;Adequa os diretórios de entrada.&lt;/font&gt;&lt;div style=&quot;font-size: 14px;&quot;&gt;&lt;font face=&quot;Courier New&quot; style=&quot;font-size: 14px;&quot;&gt;Ex. a -&amp;gt; f01&lt;/font&gt;&lt;/div&gt;&lt;div style=&quot;font-size: 14px;&quot;&gt;&lt;font face=&quot;QWBQBb5xlwXiQ7-BCR90&quot; style=&quot;font-size: 14px;&quot;&gt;b -&amp;gt; f02&lt;/font&gt;&lt;/div&gt;" style="rounded=0;whiteSpace=wrap;html=1;" vertex="1" parent="1">
          <mxGeometry x="338" y="240" width="152" height="80" as="geometry" />
        </mxCell>
        <mxCell id="HczclI9EBlV7ti5anGRS-10" value="" style="edgeStyle=orthogonalEdgeStyle;rounded=0;orthogonalLoop=1;jettySize=auto;html=1;strokeWidth=2;" edge="1" parent="1" source="HczclI9EBlV7ti5anGRS-5" target="HczclI9EBlV7ti5anGRS-6">
          <mxGeometry relative="1" as="geometry" />
        </mxCell>
        <mxCell id="HczclI9EBlV7ti5anGRS-5" value="&lt;font style=&quot;font-size: 16px;&quot;&gt;Cria uma cópia do diretório de entrada, com os nome adequados.&lt;/font&gt;" style="rounded=0;whiteSpace=wrap;html=1;" vertex="1" parent="1">
          <mxGeometry x="338" y="360" width="152" height="80" as="geometry" />
        </mxCell>
        <mxCell id="HczclI9EBlV7ti5anGRS-11" value="" style="edgeStyle=orthogonalEdgeStyle;rounded=0;orthogonalLoop=1;jettySize=auto;html=1;strokeWidth=2;" edge="1" parent="1" source="HczclI9EBlV7ti5anGRS-6" target="HczclI9EBlV7ti5anGRS-2">
          <mxGeometry relative="1" as="geometry" />
        </mxCell>
        <mxCell id="HczclI9EBlV7ti5anGRS-6" value="&lt;font style=&quot;font-size: 16px;&quot;&gt;Cria um CSV com o nome antigo e o novo nome.&lt;/font&gt;" style="rounded=0;whiteSpace=wrap;html=1;" vertex="1" parent="1">
          <mxGeometry x="338" y="480" width="152" height="80" as="geometry" />
        </mxCell>
      </root>
    </mxGraphModel>
  </diagram>
</mxfile>
